<?xml version="1.0" encoding="utf-8"?>
<!-- Generator: Adobe Illustrator 21.0.0, SVG Export Plug-In . SVG Version: 6.00 Build 0)  -->
<svg version="1.1" id="Isolation_Mode" xmlns="http://www.w3.org/2000/svg" xmlns:xlink="http://www.w3.org/1999/xlink" x="0px"
	 y="0px" viewBox="0 0 588 588" style="enable-background:new 0 0 588 588;" xml:space="preserve">
<style type="text/css">
	.st0{fill:#FFFFFF;}
	.st1{fill:#096342;}
</style>
<g>
	<circle class="st0" cx="294" cy="294" r="294"/>
	<path class="st1" d="M323.6,127.1c-2.6-0.5-15-2.5-29.6-2.5s-27,2.1-29.6,2.5c-1.5,0.3-2-1.2-0.9-2c1-0.8,30.5-23.2,30.5-23.2
		s29.5,22.4,30.5,23.2C325.6,125.9,325,127.4,323.6,127.1z M272.7,272.7c0,0-1.6,0.6-2,1.9c6.2,4.7,10.4,15.5,23.3,15.5
		s17.1-10.8,23.3-15.5c-0.4-1.4-2-1.9-2-1.9s-8.1,1.9-21.3,1.9S272.7,272.7,272.7,272.7z M294,254.5c-3.6,0-4.4-1.4-6.8-1.3
		c-2.3,0-6.8,1.9-7.8,3.6c0.1,0.9,0.4,1.6,1,2.3c5.2,0.8,7.6,3.7,13.6,3.7s8.4-2.9,13.6-3.7c0.6-0.7,0.9-1.5,1-2.3
		c-1-1.7-5.5-3.5-7.8-3.6C298.4,253.2,297.6,254.5,294,254.5z M587.6,310.1c-0.4,7-1,14-1.9,20.9c-33.3,5.5-45.2-24.1-79.3-22.7
		c2,7.2,3.7,14.6,5,22.1c28.1,0,39.5,26.3,70.7,22.4c-1.6,8-3.6,16-5.9,23.8c-24.7,2.4-33.4-22.1-62.1-21.5
		c0.2,4.1,0.4,8.2,0.4,12.3c0,2.3,0,4.6-0.1,6.9c24.4-0.3,32.3,22.3,55.6,21.2c-2.9,7.9-6.2,15.6-9.7,23.2
		c-16.7-0.9-22.5-22.4-47.9-20.6c-0.8,5.5-1.7,10.9-2.9,16.3c22.1-1.5,26.8,18.8,42.6,20.4c-4,7.4-8.4,14.5-13,21.5
		c-9.4-5-17.5-20.2-35.3-21.1c1.8-5.6,3.4-11.3,4.8-17.1c-15.8,0-33.8-6.1-48.9-19.9c4.9-27.9-38.4-56.3-38.4-76.7
		c0-22.2,11.2-34.5,11.2-64.4c0-22.2-10.8-46.3-27-62.7c-3.2-3.2-6.4-5.8-10.1-8.1c14.9,18.5,26.4,40.4,26.4,65.8
		c0,28.2-13.1,43-13.1,69s38,48.5,38,75.3c0,10.6-3.4,20.8-14.5,41.1c17.1,17.1,39.3,26.4,53.6,26.4c4.7,0,7.2-1.4,8.8-5.1
		c1.4-3.2,2.8-6.3,4.1-9.6c15.5,0.6,22.5,14.7,31.1,20.3c-4.7,6.3-9.6,12.4-14.8,18.3c-5.7-6.4-13.4-17-24.7-20
		c-2,3.9-4.2,7.8-6.4,11.6c9.7,2.6,16.4,12.4,21.5,18.9c-5.5,5.7-11.3,11.3-17.3,16.5c-3.8-5.8-9.6-13.2-16.1-17.2
		c-2.4,3.3-4.9,6.5-7.5,9.6c5.6,3.8,10.5,10.6,13.7,16.1c-6.9,5.6-14.1,10.9-21.5,15.8c-3.7-29.9-44.4-50.3-33.4-85
		c-3.6,6.1-7.9,13.8-7.9,22.9c0,25.1,26.7,45,28.8,69.9c-5.5,3.3-11.2,6.4-17,9.4c-1-27.4-29.3-57.4-29.3-79.9
		c0-25.1,32.9-50.3,32.9-79.9s-37.9-50.2-37.9-76.2s16.1-41,16.1-74.3c0-24.4-11.6-49.1-29.5-64.9c-3.2-2.8-6.3-5-10.1-7
		c16.9,20.3,26.7,38.7,26.7,66.6c0,31.3-18.5,48.7-18.5,79.4s37.2,47.8,37.2,76.4s-34.6,52.7-34.6,82.1c0,26.7,30.5,53.4,31,85.2
		c-6.7,2.9-13.5,5.6-20.4,8c3.9-32.1-30.5-65.1-30.5-91.3c0-28.6,35.9-53.2,35.9-84s-36.5-45.2-36.5-76.8s22.4-49.2,22.4-84.1
		c0-27.3-13.4-51.8-33.1-67c-0.4-0.3-0.8-0.6-1.2-0.9c-1.9-1.4-3.4,0.3-2.1,1.9c13.9,17.4,21.4,34.9,21.4,61c0,32-25.7,58-25.7,89
		c0,36.6,34.6,47,34.6,77s-37.1,54-37.1,85.8c0,29.5,35.1,62.3,29.1,96.4c-7,1.8-14.2,3.4-21.4,4.7c6.6-42.4-27.8-72.9-27.8-100.7
		c0-30.1,38.4-56.9,38.4-86.3c0-27.7-27.6-36.8-31.2-65.1c-0.5-3.9-3.6-6.7-7.9-6c-5.6,1-12.8,4.7-24,4.7s-18.4-3.7-24-4.7
		c-4.3-0.7-7.4,2.2-7.9,6c-3.6,28.4-31.2,37.4-31.2,65.1c0,29.4,38.4,56.2,38.4,86.3c0,27.8-34.4,58.3-27.8,100.7
		c-7.2-1.3-14.4-2.9-21.4-4.7c-6-34.1,29.1-66.9,29.1-96.4c0-31.9-37.1-55.9-37.1-85.8c0-30,34.6-40.5,34.6-77c0-31-25.7-57-25.7-89
		c0-26,7.4-43.6,21.4-61c1.3-1.6-0.2-3.3-2.1-1.9c-0.4,0.3-0.8,0.6-1.2,0.9c-19.7,15.2-33.1,39.7-33.1,67c0,35,22.4,52.5,22.4,84.1
		s-36.5,46-36.5,76.8s35.9,55.4,35.9,84c0,26.2-34.4,59.2-30.5,91.3c-6.9-2.4-13.7-5.1-20.4-8c0.5-31.7,31-58.4,31-85.2
		c0-29.4-34.6-53.5-34.6-82.1s37.2-45.7,37.2-76.4s-18.5-48.1-18.5-79.4c0-27.9,9.8-46.3,26.7-66.6c-3.8,2-6.9,4.2-10.1,7
		c-17.9,15.8-29.5,40.5-29.5,64.9c0,33.3,16.1,48.3,16.1,74.3c0,26-37.9,46.5-37.9,76.2c0,29.6,32.9,54.8,32.9,79.9
		c0,22.5-28.3,52.5-29.3,79.9c-5.8-2.9-11.4-6.1-17-9.4c2.1-24.9,28.8-44.8,28.8-69.9c0-9.2-4.3-16.8-7.9-22.9
		c11,34.7-29.8,55.1-33.4,85c-7.4-4.9-14.6-10.2-21.5-15.8c3.2-5.5,8.1-12.3,13.7-16.1c-2.6-3.1-5.1-6.3-7.5-9.6
		c-6.6,4-12.4,11.4-16.1,17.2c-6-5.3-11.8-10.8-17.3-16.5c5.1-6.4,11.8-16.2,21.5-18.9c-2.2-3.8-4.4-7.7-6.4-11.6
		c-11.3,3-19,13.7-24.7,20c-5.2-5.9-10.1-12-14.8-18.3c8.6-5.6,15.6-19.7,31.1-20.3c1.3,3.2,2.6,6.4,4.1,9.6
		c1.7,3.7,4.2,5.1,8.8,5.1c14.3,0,36.6-9.3,53.6-26.4c-11.1-20.2-14.5-30.5-14.5-41.1c0-26.8,38-49.3,38-75.3s-13.1-40.9-13.1-69
		c0-25.4,11.5-47.3,26.4-65.8c-3.7,2.3-6.9,4.9-10.1,8.1c-16.3,16.5-27,40.5-27,62.7c0,29.9,11.2,42.2,11.2,64.4
		c0,20.4-43.3,48.8-38.4,76.7c-15.1,13.8-33.1,19.9-48.9,19.9c1.4,5.8,3,11.5,4.8,17.1c-17.8,0.9-25.9,16.1-35.3,21.1
		c-4.6-7-9-14.1-13-21.5c15.8-1.6,20.6-22,42.7-20.4c-1.2-5.4-2.1-10.8-2.9-16.3c-25.4-1.7-31.2,19.7-47.9,20.6
		c-3.6-7.6-6.8-15.3-9.7-23.2c23.3,1.1,31.2-21.5,55.6-21.2c-0.1-2.3-0.1-4.6-0.1-6.9c0-4.1,0.1-8.3,0.4-12.3
		c-28.6-0.7-37.3,23.9-62.1,21.5c-2.3-7.8-4.3-15.7-5.9-23.8c31.3,3.9,42.6-22.4,70.7-22.4c1.3-7.5,2.9-14.9,5-22.1
		c-34.1-1.5-46,28.2-79.3,22.7c-0.9-6.9-1.5-13.9-1.9-20.9c38.7,4.3,53.2-27.5,88.4-23.6c3.3-8.4,7.2-16.6,11.5-24.4
		c-44.2-7.8-59.1,29.2-100.2,23.5C4.6,127.1,134.4,0,294,0s289.4,127.1,293.9,285.6c-41.1,5.7-56.1-31.2-100.2-23.5
		c4.3,7.8,8.2,16,11.5,24.4C534.4,282.6,548.9,314.5,587.6,310.1z M167.6,186.8c-21.6-8.9-47.8-6.8-70.2,7.6
		c-3.5-20.8-14.8-39.3-30.9-50.5c-2.2-1.5-4.5-0.1-4.3,2.5c3.4,44-22.3,82.2-54,115.8c32.6,9.8,60.4-32.2,102.6-17.5
		C126.1,222.1,145.3,202.4,167.6,186.8z M294,160.2c-27.3,0-50.2,15.4-56.1,35.4c-0.5,1.5,0.2,2.5,1.9,1.7
		c4.9-2.2,10.5-3.3,16.6-3.3c11.1,0,20.9,4.1,26.7,11.2c2.6,8.5,2.8,20.7-0.1,27.7c-4.6-1-6.2-4.6-10.7-4.6s-7.9,3.2-15.5,3.2
		s-8.5-3.6-13.5-3.6c-5.9,0-7,6-7,12.9c0,30.4,27.9,72.3,57.7,72.3s57.7-41.8,57.7-72.3c0-6.8-1.4-12.7-7.5-13.5
		c-3.1,2.2-5.9,4.2-12.9,4.2c-7.6,0-9.7-3.2-14.2-3.2c-5.4,0-4.8,11.4-11.3,12c-4.3-10.3-4.5-23.4-0.9-35.2
		c5.8-7.1,15.6-11.2,26.7-11.2c6.1,0,11.7,1.1,16.6,3.3c1.8,0.8,2.4-0.2,1.9-1.7C344.2,175.6,321.3,160.2,294,160.2z M337.5,203.8
		c-6.5,0-14.2,2-19.1,7.4c-0.5,1.5-0.5,3.6,0.2,5.1c11.9-4.1,22.3-4.2,27.4,1.4c2.7-2.4,3.6-4.7,3.6-7.2
		C349.6,206.6,345.6,203.8,337.5,203.8z M242,217.7c5.7-5.7,17.8-5.5,30.3-0.9c0.5-6.2-10.6-13-21.8-13c-8.1,0-12.1,2.7-12.1,6.7
		C238.4,213.1,239.3,215.3,242,217.7z M430.1,114.8c-21.6,1.5-40.3,8.9-55.4,21.3c6.4-18.2,14.6-34.2,24.9-49.6
		c-27.4,2.9-50.4,12.9-67.1,30.1l-13.1-34.3l29.1-25.7l-38.9-2.7L294,17.5l-15.5,36.2l-38.9,2.7l29.1,25.7l-13.1,34.3
		c-16.7-17.1-39.7-27.2-67.1-30.1c10.3,15.5,18.5,31.4,24.9,49.6c-15.1-12.3-33.9-19.7-55.4-21.3c12.9,16.6,24.4,34.3,32.9,53.4
		c1,2.2,3,2.9,5.2,1.7c29.5-14.7,62.8-22.9,98-22.9s68.5,8.3,98,22.9c2.2,1.1,4.3,0.4,5.2-1.7C405.7,149.1,417.2,131.4,430.1,114.8z
		 M477.1,244.7c42.3-14.7,70,27.3,102.6,17.5c-31.6-33.6-57.3-71.8-53.9-115.8c0.2-2.6-2.1-4-4.3-2.5
		c-16.1,11.2-27.4,29.7-30.9,50.5c-22.4-14.4-48.6-16.4-70.2-7.6C442.7,202.4,461.9,222.1,477.1,244.7z"/>
	<g>
		<path class="st1" d="M453,578.1h-2v-12.3h-4.5v-1.7h11v1.7H453V578.1z"/>
		<path class="st1" d="M466.7,574.9L466.7,574.9l4.2-10.8h3.1v14h-2v-11.7l0,0l-4.7,11.7H466l-4.7-11.7l0,0v11.7h-1.9v-14h3.1
			L466.7,574.9z"/>
	</g>
</g>
</svg>
